<?xml version="1.0" encoding="utf-8"?>
<!-- Generator: Adobe Illustrator 16.0.0, SVG Export Plug-In . SVG Version: 6.00 Build 0)  -->
<!DOCTYPE svg PUBLIC "-//W3C//DTD SVG 1.1//EN" "http://www.w3.org/Graphics/SVG/1.1/DTD/svg11.dtd">
<svg version="1.1" id="Layer_1" xmlns="http://www.w3.org/2000/svg" xmlns:xlink="http://www.w3.org/1999/xlink" x="0px" y="0px"
	 width="718.746px" height="226.366px" viewBox="0 0 718.746 226.366" enable-background="new 0 0 718.746 226.366"
	 xml:space="preserve">
<g>
	<g>
		<g>
			<g>
				<path fill="#6EC829" d="M0,93.374h17.903v5.792h0.659c4.351-4.218,10.93-7.114,19.884-7.114c13.95,0,26.852,8.162,26.852,33.566
					v1.715c0,26.458-12.646,36.464-31.596,36.464c-7.238,0-12.243-1.711-15.139-3.294v27.644H0V93.374z M46.209,129.57v-2.502
					c0-16.057-5.266-20.271-14.874-20.271c-5.934,0-10.399,1.709-12.774,3.418v36.864c2.242,1.835,6.84,3.418,12.115,3.418
					C40.417,150.498,46.209,145.629,46.209,129.57z"/>
				<path fill="#6EC829" d="M71.859,128.783v-1.848c0-22.517,13.693-34.751,32.653-34.751c21.449,0,30.274,12.108,30.274,34.353
					v6.323h-44.1c1.317,13.026,8.158,17.111,20.67,17.111c8.556,0,15.268-1.972,20.932-4.607v11.982
					c-4.744,3.157-13.035,6.451-25.273,6.451C83.576,163.797,71.859,151.023,71.859,128.783z M90.686,121.276h25.937
					c0-11.848-4.213-16.189-12.376-16.189C98.056,105.086,91.738,108.506,90.686,121.276z"/>
				<path fill="#6EC829" d="M141.347,149.317l32.649-41.998v-0.396h-31.199v-13.55h53.576v12.372l-33.17,42.785v0.385h32.772v13.561
					h-54.628V149.317z"/>
				<path fill="#6EC829" d="M203.067,128.783v-1.848c0-22.517,13.698-34.751,32.653-34.751c21.454,0,30.274,12.108,30.274,34.353
					v6.323h-44.096c1.317,13.026,8.158,17.111,20.666,17.111c8.556,0,15.272-1.972,20.936-4.607v11.982
					c-4.745,3.157-13.035,6.451-25.278,6.451C214.793,163.797,203.067,151.023,203.067,128.783z M221.899,121.276h25.937
					c0-11.848-4.214-16.189-12.385-16.189C229.274,105.086,222.956,108.506,221.899,121.276z"/>
				<path fill="#6EC829" d="M272.432,159.062v-13.035c5.664,2.229,11.059,4.209,20.667,4.209c9.086,0,12.765-2.635,12.765-7.243
					c0-4.342-2.365-6.058-9.21-7.508l-6.451-1.176c-11.059-2.109-17.903-7.773-17.903-20.671c0-13.165,8.556-21.456,26.724-21.456
					c9.612,0,15.926,1.583,20.662,3.686v13.032c-4.077-1.446-10.656-3.294-18.681-3.294c-7.641,0-11.333,2.24-11.333,6.851
					c0,4.344,2.507,5.792,8.688,6.973l6.455,1.318c13.822,2.64,18.951,8.821,18.951,20.932c0,14.48-9.604,22.116-28.037,22.116
					C286.652,163.797,278.096,161.954,272.432,159.062z"/>
				<path fill="#6EC829" d="M333.365,65.197h18.557v33.829h0.664c5.398-4.079,13.021-6.975,21.723-6.975
					c13.159,0,20.269,5.527,20.269,19.09v51.334h-18.562v-46.596c0-6.451-2.37-8.956-10.537-8.956
					c-4.603,0-9.874,1.583-13.557,3.162v52.391h-18.557V65.197z"/>
				<path fill="#6EC829" d="M403.641,144.179c0-13.557,9.219-19.083,23.434-20.932l14.87-1.972v-4.347
					c0-8.556-3.949-10.399-14.87-10.399c-6.854,0-13.03,0.926-17.642,1.977V96.002c6.84-2.503,14.87-3.818,24.752-3.818
					c16.32,0,26.193,5.923,26.193,20.799v49.493H445.11l-1.45-5.518h-0.796c-3.02,4.077-8.94,6.84-17.766,6.84
					C412.595,163.797,403.641,157.47,403.641,144.179z M441.945,148v-15.67l-10.921,1.061c-6.318,0.654-9.338,3.152-9.338,9.206
					c0,6.318,3.939,8.826,9.475,8.826C435.498,151.422,439.845,149.971,441.945,148z"/>
			</g>
			<g>
				<path fill="#6EC829" d="M694.113,117.518h-0.212c-6.584,0.06-12.748,2.67-17.351,7.353c-2.794,2.843-4.802,6.239-5.947,9.936
					l-12.601,0.106c-0.314-0.955-0.703-1.875-1.137-2.777l25.455-26.973c3.378,1.762,7.22,2.781,11.283,2.781h0.226
					c13.561-0.11,24.535-11.262,24.411-24.84c-0.11-13.47-11.173-24.431-24.619-24.431h-0.216
					c-6.584,0.073-12.748,2.684-17.355,7.375c-4.615,4.689-7.118,10.884-7.065,17.492c0.036,3.931,1.026,7.631,2.715,10.928
					l-25.141,26.66c-3.542-1.981-7.596-3.113-11.916-3.113h-0.217c-6.574,0.062-12.733,2.679-17.346,7.366
					c-4.603,4.696-7.123,10.899-7.078,17.474c0.128,13.477,11.182,24.434,24.641,24.434h0.199
					c6.597-0.049,12.765-2.671,17.363-7.366c2.79-2.839,4.806-6.234,5.951-9.931l12.584-0.115
					c3.259,9.803,12.526,16.913,23.372,16.913l0.19-0.014c13.601-0.115,24.548-11.257,24.441-24.844
					C718.622,128.483,707.59,117.518,694.113,117.518z M686.77,76.589c1.799-1.811,4.183-2.821,6.853-2.856
					c5.222,0,9.516,4.255,9.577,9.504c0.035,5.288-4.24,9.615-9.511,9.644l-0.084,7.549v-7.549c-5.234,0-9.523-4.25-9.577-9.5
					C683.997,80.83,684.979,78.414,686.77,76.589z M641.479,149.361c-1.813,1.821-4.2,2.83-6.747,2.86l-0.089,7.539v-7.539
					c-5.222,0-9.537-4.253-9.572-9.501c-0.026-2.551,0.941-4.957,2.745-6.774c1.787-1.831,4.196-2.874,6.827-2.892
					c5.235,0,9.533,4.271,9.577,9.506C644.234,145.117,643.271,147.54,641.479,149.361z M694.184,151.722l-0.07,7.543v-7.543
					c-5.227,0-9.542-4.271-9.586-9.488c0-2.556,0.946-4.988,2.75-6.792c1.786-1.826,4.188-2.861,6.836-2.865
					c5.235,0,9.533,4.253,9.577,9.488C703.726,147.345,699.468,151.696,694.184,151.722z"/>
			</g>
			<g>
				<g>
					<path fill="#7C7C81" d="M641.13,60.65V48.073c9.931-3.184,17.129-12.491,17.129-23.452C658.259,11.036,647.214,0,633.618,0
						c-13.574,0-24.646,11.036-24.646,24.621c0,10.961,7.202,20.262,17.129,23.45V60.65c-0.978,0.312-1.91,0.692-2.821,1.116
						l-26.719-25.658c1.821-3.429,2.855-7.338,2.855-11.487C599.417,11.036,588.359,0,574.794,0
						c-13.587,0-24.637,11.036-24.637,24.621c0,13.583,11.05,24.632,24.637,24.632c3.948,0,7.662-0.959,10.979-2.615l26.41,25.337
						c-2.043,3.586-3.21,7.713-3.21,12.108c0,13.587,11.071,24.635,24.646,24.635c13.596,0,24.641-11.047,24.641-24.635
						C658.259,73.139,651.061,63.829,641.13,60.65z M633.618,15.042c5.288,0,9.586,4.3,9.586,9.579c0,5.277-4.298,9.57-9.586,9.57
						c-5.275,0-9.582-4.293-9.582-9.57C624.036,19.342,628.343,15.042,633.618,15.042z M574.794,34.191
						c-5.284,0-9.581-4.293-9.581-9.57c0-5.279,4.297-9.579,9.581-9.579c5.274,0,9.563,4.3,9.563,9.579
						C584.357,29.898,580.068,34.191,574.794,34.191z M633.618,93.674c-5.275,0-9.582-4.3-9.582-9.59
						c0-5.275,4.307-9.573,9.582-9.573c5.288,0,9.586,4.298,9.586,9.573C643.204,89.375,638.906,93.674,633.618,93.674z"/>
					<path fill="#7C7C81" d="M575.236,59.078h-0.213c-6.553,0.051-12.712,2.677-17.346,7.355c-2.789,2.841-4.797,6.248-5.955,9.944
						l-12.566,0.115c-3.263-9.803-12.53-16.906-23.372-16.906h-0.199c-13.604,0.111-24.565,11.257-24.442,24.829
						c0.128,13.475,11.168,24.42,24.627,24.42h0.226c6.57-0.044,12.739-2.66,17.346-7.349c2.799-2.845,4.802-6.25,5.956-9.953
						l12.575-0.106c0.322,0.966,0.721,1.892,1.145,2.796l-25.441,26.967c-3.391-1.773-7.233-2.79-11.301-2.79l-0.217,0.022
						c-13.57,0.11-24.522,11.248-24.416,24.818c0.111,13.486,11.169,24.425,24.619,24.425h0.234
						c6.575-0.044,12.734-2.671,17.328-7.367c4.629-4.669,7.145-10.877,7.07-17.469c-0.036-3.931-1.021-7.645-2.711-10.943
						l25.158-26.646c3.533,1.97,7.592,3.099,11.895,3.099h0.221c6.575-0.062,12.726-2.684,17.342-7.364
						c4.624-4.693,7.127-10.893,7.069-17.48C599.758,70.035,588.704,59.078,575.236,59.078z M522.603,90.922
						c-1.8,1.839-4.179,2.836-6.738,2.858l-0.094,7.537V93.78c-5.226,0-9.52-4.238-9.576-9.479c-0.04-5.297,4.218-9.619,9.59-9.677
						c5.244,0,9.524,4.276,9.572,9.515C525.393,86.697,524.393,89.104,522.603,90.922z M523.098,149.759
						c-1.786,1.821-4.183,2.843-6.756,2.856l-0.08,7.53v-7.53c-5.222,0-9.515-4.262-9.563-9.497
						c-0.063-5.266,4.218-9.604,9.577-9.657c5.248,0,9.537,4.271,9.586,9.498C525.865,145.523,524.91,147.929,523.098,149.759z
						 M582.063,90.436c-1.786,1.813-4.178,2.828-6.729,2.858l-0.097,7.515v-7.515c-5.258,0-9.516-4.256-9.577-9.502
						c-0.018-2.564,0.95-4.967,2.746-6.796c1.804-1.821,4.187-2.852,6.831-2.869c5.244,0,9.532,4.251,9.586,9.5
						C584.822,86.188,583.862,88.598,582.063,90.436z"/>
					<path fill="#7C7C81" d="M635.09,177.093c-3.948,0-7.68,0.964-10.991,2.626l-26.405-25.344
						c2.021-3.577,3.196-7.702,3.196-12.102c0-13.579-11.058-24.632-24.628-24.632c-13.565,0-24.628,11.054-24.628,24.632
						c0,10.952,7.198,20.255,17.103,23.447v12.557c-9.904,3.192-17.103,12.496-17.103,23.461c0,13.574,11.063,24.627,24.628,24.627
						c13.57,0,24.628-11.054,24.628-24.627c0-10.965-7.185-20.255-17.08-23.452v-12.57c0.959-0.314,1.888-0.703,2.799-1.119
						l26.719,25.649c-1.821,3.44-2.855,7.34-2.855,11.492c0,13.574,11.049,24.627,24.618,24.627c13.601,0,24.65-11.054,24.65-24.627
						C659.74,188.156,648.69,177.093,635.09,177.093z M576.262,132.683c5.288,0,9.591,4.315,9.591,9.59
						c0,5.284-4.303,9.582-9.591,9.582c-5.301,0-9.581-4.298-9.581-9.582C566.681,136.999,570.961,132.683,576.262,132.683z
						 M576.262,211.307c-5.301,0-9.581-4.289-9.581-9.568c0-5.284,4.28-9.577,9.581-9.577c5.288,0,9.591,4.293,9.591,9.577
						C585.853,207.018,581.55,211.307,576.262,211.307z M635.09,211.307c-5.261,0-9.559-4.289-9.559-9.568
						c0-5.284,4.298-9.577,9.559-9.577c5.284,0,9.595,4.293,9.595,9.577C644.685,207.018,640.374,211.307,635.09,211.307z"/>
				</g>
			</g>
		</g>
	</g>
	<g>
		<text transform="matrix(1 0 0 1 83.2339 218.5303)" fill="#FFFFFF" font-family="'Roboto-Regular'" font-size="28.2423">Responsible borrowing for all!</text>
	</g>
</g>
</svg>
